<svg xmlns="http://www.w3.org/2000/svg" aria-hidden="true" overflow="hidden" style="position:absolute;width:0;height:0">
  <defs>
    <symbol id="icon-Arrow-left" viewBox="0 0 36 32">
      <path d="M1.062 17.414a2 2 0 0 1 0-2.828L13.79 1.858a2 2 0 1 1 2.828 2.828L5.304 16l11.314 11.314a2 2 0 1 1-2.828 2.828L1.062 17.414zM36 18H2.476v-4H36v4z"/>
    </symbol>
    <symbol id="icon-Arrow-right" viewBox="0 0 36 32">
      <path d="M35.414 14.586a2 2 0 0 1 0 2.828L22.686 30.142a2 2 0 1 1-2.828-2.828L31.172 16 19.858 4.686a2 2 0 1 1 2.828-2.828l12.728 12.728zM34 18H.476v-4H34v4z"/>
    </symbol>
    <symbol id="icon-facebook" viewBox="0 0 32 32">
      <path d="M24.406.668a41.312 41.312 0 0 0-4.476-.23c-4.956 0-8.036 3.157-8.036 8.238v3.45H7.731a.738.738 0 0 0-.737.737v5.674a.738.738 0 0 0 .737.737h4.163v11.377a.738.738 0 0 0 .737.737h5.862a.738.738 0 0 0 .737-.737V19.274h4.15a.736.736 0 0 0 .731-.641l.732-5.674a.751.751 0 0 0-.177-.582.743.743 0 0 0-.554-.251H19.23V9.239c0-1.429.287-2.026 2.075-2.026h3.005a.738.738 0 0 0 .737-.737V1.399a.736.736 0 0 0-.641-.731zm-.832 5.069-2.269.001c-3.179 0-3.547 1.998-3.547 3.5v3.625a.739.739 0 0 0 .735.737h4.784l-.544 4.2h-4.238a.738.738 0 0 0-.737.737v11.374h-4.389V18.537a.738.738 0 0 0-.737-.737H8.47v-4.2h4.162a.738.738 0 0 0 .737-.737V8.675c0-4.235 2.454-6.764 6.562-6.764 1.487 0 2.829.081 3.643.152v3.674z"/>
    </symbol>
    <symbol id="icon-instagram" viewBox="0 0 32 32">
      <path d="M16 8.897a7.106 7.106 0 0 0-6.562 4.385 7.109 7.109 0 0 0 1.54 7.741 7.109 7.109 0 0 0 10.929-1.076 7.101 7.101 0 0 0-5.906-11.048zm0 12.353a5.252 5.252 0 0 1-5.15-6.274 5.248 5.248 0 0 1 9.514-1.892c.577.863.885 1.878.885 2.917a5.265 5.265 0 0 1-5.25 5.25zM22.794.868H9.206A8.338 8.338 0 0 0 .868 9.206v13.588a8.338 8.338 0 0 0 8.338 8.338h13.588a8.338 8.338 0 0 0 8.338-8.338V9.206A8.338 8.338 0 0 0 22.794.868zm6.485 21.926a6.488 6.488 0 0 1-6.485 6.485H9.206a6.486 6.486 0 0 1-6.485-6.485V9.206a6.486 6.486 0 0 1 6.485-6.485h13.588a6.488 6.488 0 0 1 6.485 6.485v13.588zM25.574 7.971a1.55 1.55 0 0 1-.953 1.427 1.54 1.54 0 0 1-1.683-.335 1.547 1.547 0 0 1-.335-1.683 1.548 1.548 0 0 1 1.427-.953 1.547 1.547 0 0 1 1.544 1.544z"/>
    </symbol>
    <symbol id="icon-phone" viewBox="0 0 32 32">
      <path d="m28.237 23.305-.182-.227c-1.441-1.821-2.645-2.769-3.678-2.894-.893-.122-1.757.496-2.675 1.131l-.981.613a2.205 2.205 0 0 1-.343.139c-.574.162-2.023.258-2.843-.493-.955-.874-2.436-2.472-3.588-3.87-1.1-1.446-2.31-3.249-2.941-4.385-.533-.962-.087-2.307.211-2.806.059-.098.136-.195.221-.29l.865-.799c.013-.013.018-.028.029-.039.008-.008.022-.006.032-.013.781-.659 1.589-1.338 1.7-2.211.13-1.025-.507-2.411-1.95-4.231l-.176-.227C11.045 1.558 9.694-.174 7.753.112 6.99.225 6.308.486 5.605.927c-.007.004-.011.013-.017.017s-.013.004-.018.008l-.979.725c-.01.006-.015.018-.025.027-.007.007-.018.008-.027.015-.113.095-.227.193-.339.294-.993.885-3.142 3.454-1.676 8.205.946 3.069 2.898 6.65 5.657 10.377l-.027.022 1.522 1.896.013-.01c2.992 3.539 6.037 6.275 8.827 7.931 1.862 1.106 3.489 1.471 4.827 1.471 1.761 0 3.023-.633 3.655-1.044l.398-.266c.045-.031.077-.074.109-.113l.867-.652c.01-.008.015-.02.025-.028.004-.004.011-.003.017-.007.616-.563 1.043-1.152 1.34-1.851.769-1.791-.608-3.506-1.518-4.641zm.489 4.202c-.231.543-.568 1.005-1.056 1.453l-1.289.97c-1.168.759-3.664 1.697-7.29-.456-2.79-1.656-5.862-4.456-8.884-8.098l-.818-1.033c-2.846-3.774-4.848-7.389-5.793-10.452-1.228-3.983.319-6.119 1.355-7.042.105-.095.21-.183.314-.272l.004-.004.939-.696c.571-.361 1.1-.563 1.709-.655 1.301-.196 2.359 1.176 3.136 2.173l.182.231c1.613 2.034 1.768 3.002 1.718 3.396-.056.438-.722 1-1.31 1.494l-.083.07-.007.01-.013.007-.895.827c-.006.006-.008.013-.014.02s-.017.01-.022.017a3.058 3.058 0 0 0-.354.472c-.503.841-.977 2.58-.228 3.926.654 1.176 1.898 3.034 3.042 4.535 1.196 1.45 2.72 3.097 3.709 4 .741.676 1.771.903 2.663.903.477 0 .916-.066 1.247-.16.175-.05.356-.123.542-.214.011-.006.017-.015.028-.022.006-.003.014-.001.02-.006l1.039-.65c.034-.022.056-.052.084-.08l.013.014c.64-.444 1.369-.965 1.826-.889.405.049 1.323.438 2.939 2.478l.186.234c.787.981 1.865 2.325 1.362 3.5z"/>
    </symbol>
    <symbol id="icon-1" viewBox="0 0 29 32">
      <path d="M14.612.072c-1.145 0-2.215.522-3.127 1.376S9.793 3.492 9.142 4.933a18.01 18.01 0 0 0-.391.939 18.142 18.142 0 0 0-1.011-.131 14.909 14.909 0 0 0-1.15-.072c-1.12-.027-2.143.087-3.04.359-1.196.363-2.182 1.028-2.755 2.02s-.656 2.179-.372 3.396c.284 1.217.924 2.488 1.847 3.772.194.269.401.539.619.81-.214.264-.42.533-.618.809C1.348 18.119.708 19.39.424 20.607s-.201 2.404.372 3.396 1.559 1.658 2.755 2.02 2.616.444 4.19.287c.33-.033.667-.077 1.01-.131.122.317.252.631.392.941.651 1.441 1.431 2.631 2.343 3.485s1.982 1.376 3.127 1.376c1.145 0 2.215-.522 3.127-1.376s1.692-2.044 2.343-3.485c.14-.31.27-.624.392-.941a17.9 17.9 0 0 0 1.009.131c1.573.157 2.994.076 4.19-.287s2.182-1.028 2.755-2.02.656-2.179.372-3.396-.924-2.488-1.847-3.772a17.818 17.818 0 0 0-.618-.809c.214-.264.42-.534.619-.809.923-1.284 1.563-2.555 1.847-3.772s.201-2.404-.372-3.396-1.559-1.658-2.755-2.02c-.897-.272-1.92-.385-3.039-.359-.373.009-.757.033-1.15.072-.33.033-.667.077-1.01.131-.122-.317-.252-.63-.391-.939-.651-1.441-1.431-2.631-2.343-3.485S15.76.073 14.615.073zm0 1.274c.764 0 1.513.336 2.256 1.032s1.452 1.749 2.053 3.08c.098.217.191.436.279.657-1.46.325-3.007.823-4.588 1.488a27.09 27.09 0 0 0-4.587-1.488c.09-.226.183-.446.279-.658.601-1.331 1.31-2.384 2.053-3.08s1.492-1.031 2.256-1.031zM6.186 6.941a13.553 13.553 0 0 1 1.428.068c.232.023.47.053.711.088a27.024 27.024 0 0 0-1.005 4.717 27.01 27.01 0 0 0-3.583 3.229 15.801 15.801 0 0 1-.431-.571c-.852-1.185-1.409-2.326-1.641-3.318s-.147-1.808.235-2.469c.382-.662 1.047-1.143 2.021-1.438.639-.194 1.405-.298 2.266-.306zm16.852 0c.861.008 1.626.112 2.266.306.974.295 1.639.776 2.021 1.438s.466 1.478.235 2.469c-.231.991-.789 2.132-1.641 3.318-.14.194-.283.384-.431.571a27.13 27.13 0 0 0-3.582-3.229 27.056 27.056 0 0 0-1.005-4.718 14.236 14.236 0 0 1 1.763-.154c.125-.003.25-.004.375-.003zm-3.404.385c.339 1.053.619 2.214.829 3.457a34.473 34.473 0 0 0-4.237-2.446 24.633 24.633 0 0 1 3.408-1.01zm-10.044 0a24.76 24.76 0 0 1 3.407 1.01 34.599 34.599 0 0 0-4.236 2.445c.209-1.243.49-2.404.829-3.456zm5.022 1.668c1.037.457 2.089.989 3.138 1.595s2.037 1.252 2.951 1.921c.122 1.127.188 2.304.188 3.516s-.066 2.388-.188 3.514a32.84 32.84 0 0 1-6.09 3.516c-1.037-.457-2.09-.989-3.139-1.595s-2.036-1.251-2.95-1.92c-.122-1.127-.188-2.304-.188-3.515s.066-2.39.188-3.517a32.822 32.822 0 0 1 6.088-3.515zm.086 1.917-3.648 2.251 3.648 2.251 3.648-2.251-3.648-2.251zm-7.552 2.668a35.027 35.027 0 0 0 0 4.892 24.586 24.586 0 0 1-2.579-2.446 24.69 24.69 0 0 1 2.579-2.446zm14.932.001a24.77 24.77 0 0 1 2.578 2.445 24.666 24.666 0 0 1-2.578 2.445 34.992 34.992 0 0 0 0-4.891zm-11.85.572v4.445l3.831 2.364v-4.445l-3.831-2.365zm8.936.002-3.83 2.364v4.443l3.83-2.364v-4.443zM3.736 17.007a26.94 26.94 0 0 0 3.583 3.229c.214 1.701.556 3.29 1.005 4.716-.241.035-.478.064-.71.088-1.453.145-2.72.057-3.693-.238s-1.639-.776-2.021-1.438c-.382-.662-.466-1.478-.235-2.469s.789-2.132 1.641-3.318c.139-.193.283-.384.43-.57zm21.752 0c.15.191.295.381.43.57.852 1.185 1.409 2.326 1.641 3.318s.147 1.808-.235 2.469c-.382.662-1.047 1.143-2.021 1.438s-2.241.383-3.693.238a15.414 15.414 0 0 1-.709-.088 27.036 27.036 0 0 0 1.005-4.718 27.057 27.057 0 0 0 3.582-3.228zm-5.025 4.26a24.682 24.682 0 0 1-.829 3.457 24.781 24.781 0 0 1-3.408-1.011 35.272 35.272 0 0 0 4.236-2.446zm-11.702.001a35.248 35.248 0 0 0 4.235 2.446c-1.181.44-2.326.778-3.407 1.01a24.773 24.773 0 0 1-.829-3.456zm5.889.058.046.029.046-.029h-.092zm-.038 3.121a27.128 27.128 0 0 0 4.588 1.488c-.088.222-.181.442-.279.659-.601 1.33-1.31 2.384-2.053 3.08s-1.492 1.032-2.256 1.032c-.764 0-1.513-.336-2.256-1.032s-1.452-1.749-2.053-3.08a16.45 16.45 0 0 1-.279-.659 27.128 27.128 0 0 0 4.588-1.488z"/>
    </symbol>
    <symbol id="icon-2" viewBox="0 0 32 32">
      <path d="M9.755 11.589H-.137a.539.539 0 0 0-.55.527v3.164c0 .292.246.527.55.527h.55v12.127c0 .292.246.527.55.527h7.694c.304 0 .55-.236.55-.527V15.807h.55c.304 0 .55-.236.55-.527v-3.164a.538.538 0 0 0-.55-.527zM3.71 21.607v-1.055h3.297v-1.055H3.71v-1.055h4.396v6.854H3.71V22.66h1.099v-1.055H3.71zm4.396-4.218H3.16a.539.539 0 0 0-.55.527v7.909c0 .292.246.527.55.527h4.946v1.055H1.511v-11.6h6.595v1.582zm1.099-2.636H.412v-2.109h8.793v2.109zm7.831-3.065V7.833c0-.3-.246-.543-.55-.543h-.55V4.576h1.099V3.49H10.99v1.086h3.847V7.29h-.55a.546.546 0 0 0-.55.543v3.855c-1.252.252-2.198 1.348-2.198 2.659v13.571c0 .3.246.543.55.543h6.595c.304 0 .55-.243.55-.543V14.347c0-1.31-.946-2.407-2.198-2.659zm-2.198-3.312h1.099v3.257h-1.099V8.376zm-.549 4.343h2.198c.909 0 1.649.731 1.649 1.629v.543H12.64v-.543c0-.898.74-1.629 1.649-1.629zm3.846 12.485h-5.496v-1.086h2.198v-1.086h-2.198v-7.057h5.496v9.228zm-5.495 2.172V26.29h5.496v1.086H12.64zm18.444-16.462H21.81a.523.523 0 0 0-.515.532V27.93c0 .294.23.532.515.532h9.274a.523.523 0 0 0 .515-.532V11.446a.523.523 0 0 0-.515-.532zm-.515 16.484h-8.243v-15.42h8.243v15.42z"/>
      <path d="M7.557 21.712H6.183v.675h1.374v-.675zm9.617 1.35H15.8v1.35h1.374v-1.35zm-1.718-1.35c1.326 0 2.404-1.059 2.404-2.362s-1.078-2.362-2.404-2.362c-1.326 0-2.404 1.059-2.404 2.362s1.078 2.362 2.404 2.362zm0-3.543c.663 0 1.202.53 1.202 1.181s-.539 1.181-1.202 1.181c-.663 0-1.202-.53-1.202-1.181s.539-1.181 1.202-1.181zm9.703-1.856h2.576c.994 0 1.803-.757 1.803-1.687s-.809-1.687-1.803-1.687h-2.576c-.994 0-1.803.757-1.803 1.687s.809 1.687 1.803 1.687zm3.349-1.687c0 .399-.347.723-.773.723h-.773v-1.446h.773c.426 0 .773.324.773.723zm-3.349-.723h.773v1.446h-.773c-.426 0-.773-.324-.773-.723s.347-.723.773-.723zm0 7.809h2.576c.994 0 1.803-.908 1.803-2.025s-.809-2.025-1.803-2.025h-2.576c-.994 0-1.803.908-1.803 2.025s.809 2.025 1.803 2.025zm3.349-2.024c0 .478-.347.868-.773.868h-.773v-1.735h.773c.426 0 .773.389.773.868zm-3.349-.868h.773v1.735h-.773c-.426 0-.773-.389-.773-.868s.347-.868.773-.868zm0 7.617h2.576c.994 0 1.803-.908 1.803-2.025s-.809-2.025-1.803-2.025h-2.576c-.994 0-1.803.908-1.803 2.025s.809 2.025 1.803 2.025zm3.349-2.025c0 .478-.347.868-.773.868h-.773v-1.735h.773c.426 0 .773.389.773.868zm-3.349-.868h.773v1.735h-.773c-.426 0-.773-.389-.773-.868s.347-.868.773-.868z"/>
    </symbol>
    <symbol id="icon-3" viewBox="0 0 32 32">
      <path d="M30.932 9.083c-.276-.25-.609-.41-.963-.463s-.715.004-1.041.163l-6.886 3.36c-.03.018-.064.03-.098.033s-.069 0-.102-.011c-.033-.011-.064-.03-.09-.054s-.048-.054-.064-.088l-4.023-7.95c-.163-.329-.404-.603-.696-.794s-.627-.292-.967-.292c-.34 0-.674.101-.967.292s-.533.465-.696.794l-4.023 7.95c-.016.034-.038.064-.064.088s-.057.043-.09.054a.236.236 0 0 1-.2-.022l-6.886-3.36c-.325-.162-.686-.221-1.04-.169s-.688.212-.964.462-.482.58-.595.953-.13.773-.047 1.155l3.477 16.245c.059.275.168.533.32.76s.345.417.566.56a1.732 1.732 0 0 0 1.486.225 33.332 33.332 0 0 1 19.432-.015c.248.079.508.101.764.066s.503-.127.726-.27.417-.334.571-.562a2.2 2.2 0 0 0 .324-.764l3.464-16.245c.087-.379.074-.778-.038-1.15s-.316-.701-.59-.95zm-.955 1.68L26.5 27.008a.347.347 0 0 1-.123.195.313.313 0 0 1-.218.03 34.819 34.819 0 0 0-20.318 0 .25.25 0 0 1-.214-.031c-.032-.021-.06-.049-.081-.082s-.037-.071-.045-.111L2.024 10.764a.34.34 0 0 1 .057-.256c.026-.036.059-.065.096-.085s.078-.032.119-.033l.109.03 6.9 3.375c.435.216.928.243 1.381.076s.831-.515 1.06-.976l4.023-7.95a.282.282 0 0 1 .095-.115.238.238 0 0 1 .272 0 .284.284 0 0 1 .096.115l4.023 7.95c.229.46.608.809 1.06.976s.946.14 1.381-.076l6.9-3.375a.248.248 0 0 1 .286.045c.04.035.07.082.087.135s.02.11.009.165zm-8.795 11.4c-.023.222-.119.426-.27.575s-.346.233-.548.235h-.082a38.923 38.923 0 0 0-8.564 0c-.215.025-.43-.044-.599-.193s-.277-.365-.301-.602c-.019-.238.047-.475.185-.66s.336-.303.552-.33a38.318 38.318 0 0 1 8.891 0c.213.027.409.143.547.325s.205.415.19.65z"/>
    </symbol>
  </defs>
</svg>
